<svg xmlns="http://www.w3.org/2000/svg" viewBox="0 0 47.19 69.52"><title>avt kamo</title><g id="Layer_1" data-name="Layer 1"><path d="M38,85.23c.68-7.07-1.16-14.13-3.33-20.9s-4.7-13.49-5.46-20.55.46-14.68,5.06-20.09,13.08-7.8,19.13-4.08c3.56,2.2,5.79,6.1,6.86,10.14A128,128,0,0,1,62.5,42.5a45.17,45.17,0,0,1,.61,13c-.28,2-1,4-1.39,6a61.25,61.25,0,0,0-1.22,10c-.11,4.18-.41,7.92.42,11.94.21,1,.55.76-.37,1.35s-2.44.52-3.35.67a52.88,52.88,0,0,1-6.39.69C49.71,86.2,37.88,85.94,38,85.23Z" transform="translate(-28.45 -17.13)" fill="#1f773d" stroke="#000" stroke-miterlimit="10"/><g id="Layer_10" data-name="Layer 10"><path d="M38.34,85.18A58.25,58.25,0,0,0,61,84.6a19.68,19.68,0,0,1-.84-5.54c-3.54.41-7.09.71-10.65.88q-2.65.14-5.31.18c-1.74,0-3.6-.2-5.32,0-.46,0-.46.14-.48.6s0,1,0,1.49C38.36,82.45,38.27,85.17,38.34,85.18Z" transform="translate(-28.45 -17.13)" fill="#fff"/></g><path d="M38,85.23c.68-7.07-1.16-14.13-3.33-20.9s-4.7-13.49-5.46-20.55.46-14.68,5.06-20.09,13.08-7.8,19.13-4.08c3.56,2.2,5.79,6.1,6.86,10.14A128,128,0,0,1,62.5,42.5a45.17,45.17,0,0,1,.61,13c-.28,2-1,4-1.39,6a61.25,61.25,0,0,0-1.22,10c-.11,4.18-.41,7.92.42,11.94.21,1,.55.76-.37,1.35s-2.44.52-3.35.67a52.88,52.88,0,0,1-6.39.69C49.71,86.2,37.88,85.94,38,85.23Z" transform="translate(-28.45 -17.13)" fill="none" stroke="#000" stroke-miterlimit="10"/></g><g id="Layer_9" data-name="Layer 9"><path d="M34.92,64.9a2.91,2.91,0,0,0,2.47.74,10.07,10.07,0,0,0,2.55-.8,38.3,38.3,0,0,1,8.55-2.29c6.75-1,13.89-.17,20.18-2.81a3.47,3.47,0,0,0,1.53-1,1.35,1.35,0,0,0,0-1.71,2,2,0,0,0-1.46-.33,135.48,135.48,0,0,0-30.17,4.54l-2,.56a4.91,4.91,0,0,0-1.59.54A1.9,1.9,0,0,0,34.92,64.9Z" transform="translate(-28.45 -17.13)" fill="#fdf17b" stroke="#000" stroke-miterlimit="10"/></g><g id="Layer_8" data-name="Layer 8"><path d="M32.2,62.69a5.15,5.15,0,0,0,2.41-.36A128.66,128.66,0,0,1,70,56.5a7.78,7.78,0,0,0,3.71-.69,2.56,2.56,0,0,0,1.23-3.21,2.46,2.46,0,0,0-1.83-1.15,6.71,6.71,0,0,0-2.23.13c-1.51.26-3,.54-4.52.83l-17,3.26-8.44,1.62c-2.51.48-5.12.79-7.58,1.46a4.9,4.9,0,0,0-2.28,1.44A1.55,1.55,0,0,0,32.2,62.69Z" transform="translate(-28.45 -17.13)" fill="#fdf17b" stroke="#000" stroke-miterlimit="10"/></g><g id="Layer_2" data-name="Layer 2"><ellipse cx="40.58" cy="42.41" rx="11.09" ry="14" transform="translate(-34.46 -10.42) rotate(-8.81)" fill="#fff" stroke="#000" stroke-miterlimit="10"/><ellipse cx="62.09" cy="38.49" rx="10.59" ry="14" transform="translate(-33.61 -7.17) rotate(-8.81)" fill="#fff" stroke="#000" stroke-miterlimit="10"/></g><g id="Layer_3" data-name="Layer 3"><path d="M51,40a22.74,22.74,0,0,1,.1,6.59,13,13,0,0,1-1.37,4.33c-.34.63-.79,1.17-1.18,1.77a9.74,9.74,0,0,1-1.27,1.59A5.63,5.63,0,0,1,44.13,56c-2.82.43-5.45-1.63-7-3.82A25.15,25.15,0,0,1,32.47,39.5c-.16-2.45,0-6,1.54-8,1.34-1.73,3.88-2.52,6-2.84C44.45,28,49.85,32.45,51,40Z" transform="translate(-28.45 -17.13)"/><path d="M72,36.15a15.41,15.41,0,0,1,.44,2,13.42,13.42,0,0,1-.25,4.64c-.18.76-.55,1.48-.71,2.24a7.51,7.51,0,0,1-.66,2c-.31.63-.73,1.17-1.09,1.76a9.56,9.56,0,0,1-1.18,1.58,5.18,5.18,0,0,1-2.94,1.69c-2.36.36-4.16-1-5.7-2.6A17.92,17.92,0,0,1,56,43.36a28,28,0,0,1-1.54-7.86c-.17-2.44-.08-6,1.38-8,1.24-1.71,3.62-2.48,5.58-2.78,4.28-.65,7.73,3.51,9.22,7a17.55,17.55,0,0,1,1,3.08C71.73,35.3,71.84,35.72,72,36.15Z" transform="translate(-28.45 -17.13)"/><path d="M43.59,36.4a1,1,0,0,0,1.27,0A1,1,0,0,0,45,35.16a1.3,1.3,0,0,0-1.2-.42.9.9,0,0,0-.57,1A1.05,1.05,0,0,0,43.59,36.4Z" transform="translate(-28.45 -17.13)" fill="#fff"/><path d="M67.4,30.78a.85.85,0,0,0-.55.31.8.8,0,0,0-.17.61.69.69,0,0,0,.53.61.92.92,0,0,0,.56-.12,1.2,1.2,0,0,0,.46-.37.65.65,0,0,0,.11-.55.73.73,0,0,0-.59-.46,1.11,1.11,0,0,0-.54,0" transform="translate(-28.45 -17.13)" fill="#fff"/></g><g id="Layer_7" data-name="Layer 7"><path d="M53.5,29a5.88,5.88,0,0,1,2-4.45,8.13,8.13,0,0,1,4.95-1.66A6,6,0,0,1,65,25.3" transform="translate(-28.45 -17.13)" fill="none" stroke="#000" stroke-linecap="round" stroke-miterlimit="10"/><path d="M30.84,34.53a6.86,6.86,0,0,1,3.8-7,8.88,8.88,0,0,1,3.7-.82,7.41,7.41,0,0,1,3.06.5,4.19,4.19,0,0,1,2.24,2.06l-.13-.06" transform="translate(-28.45 -17.13)" fill="none" stroke="#000" stroke-linecap="round" stroke-miterlimit="10"/><path d="M51.31,24.92A16.31,16.31,0,0,1,65,17.63" transform="translate(-28.45 -17.13)" fill="none" stroke="#000" stroke-linecap="round" stroke-miterlimit="10"/><path d="M30.94,23.84a5.75,5.75,0,0,1,3.8-1.52c2,0,3.88.94,5.84.75" transform="translate(-28.45 -17.13)" fill="none" stroke="#000" stroke-linecap="round" stroke-miterlimit="10"/></g></svg>